<svg xmlns="http://www.w3.org/2000/svg" version="1.1" xmlnsXlink="http://www.w3.org/1999/xlink" xmlnsSvgjs="http://svgjs.dev/svgjs" width="1000" height="1000" viewBox="0 0 1000 1000"><rect width="1000" height="1000" fill="#ffffff"></rect><g transform="matrix(0.7,0,0,0.7,149.57575863153323,429.0136265128814)"><svg viewBox="0 0 396 81" data-background-color="#ffffff" preserveAspectRatio="xMidYMid meet" height="204" width="1000" xmlns="http://www.w3.org/2000/svg" xmlnsXlink="http://www.w3.org/1999/xlink"><g id="tight-bounds" transform="matrix(1,0,0,1,0.23999940273262155,-0.23462008083606634)"><svg viewBox="0 0 395.52 81.46924016167213" height="81.46924016167213" width="395.52"><g><svg viewBox="0 0 395.52 81.46924016167213" height="81.46924016167213" width="395.52"><g><svg viewBox="0 0 525.8134953524866 108.30710440210358" height="81.46924016167213" width="395.52"><g transform="matrix(1,0,0,1,130.29349535248667,30.870381791540563)"><svg viewBox="0 0 395.52 46.56634081902245" height="46.56634081902245" width="395.52"><g id="textblocktransform"><svg viewBox="0 0 395.52 46.56634081902245" height="46.56634081902245" width="395.52" id="textblock"><g><svg viewBox="0 0 395.52 46.56634081902245" height="46.56634081902245" width="395.52"><g transform="matrix(1,0,0,1,0,0)"><svg width="395.52" viewBox="4 -34.849998474121094 304.0299987792969 35.64999771118164" height="46.56634081902245" data-palette-color="#528265"><g class="undefined-text-0" data-fill-palette-color="primary" id="text-0"><path d="M7.75 0L4 0 4-34.1 7.75-34.1 7.75-19.35 25.75-19.35 25.75-34.1 29.5-34.1 29.5 0 25.75 0 25.75-16.25 7.75-16.25 7.75 0ZM56.7 0L37.45 0 37.45-34.1 56.55-34.1 56.55-30.95 41.2-30.95 41.2-19.05 53.2-19.05 53.2-16 41.2-16 41.2-3.1 56.7-3.1 56.7 0ZM81.7 0L62.6 0 62.6-34.1 66.35-34.1 66.35-3.1 81.7-3.1 81.7 0ZM105.49 0L86.39 0 86.39-34.1 90.14-34.1 90.14-3.1 105.49-3.1 105.49 0ZM123.64 0.8Q119.39 0.8 116.07-1.48 112.74-3.75 110.87-7.8 108.99-11.85 108.99-17L108.99-17Q108.99-22.15 110.87-26.23 112.74-30.3 116.07-32.58 119.39-34.85 123.64-34.85L123.64-34.85Q127.89-34.85 131.22-32.58 134.54-30.3 136.42-26.23 138.29-22.15 138.29-16.95L138.29-16.95Q138.29-11.8 136.42-7.78 134.54-3.75 131.22-1.48 127.89 0.8 123.64 0.8L123.64 0.8ZM123.64-2.65Q126.74-2.65 129.22-4.48 131.69-6.3 133.09-9.58 134.49-12.85 134.49-17L134.49-17Q134.49-21.15 133.09-24.45 131.69-27.75 129.22-29.6 126.74-31.45 123.64-31.45L123.64-31.45Q120.54-31.45 118.07-29.6 115.59-27.75 114.19-24.45 112.79-21.15 112.79-17L112.79-17Q112.79-12.85 114.19-9.58 115.59-6.3 118.07-4.48 120.54-2.65 123.64-2.65L123.64-2.65Z" fill="#528265" data-fill-palette-color="primary"></path><path d="M142.29 0L142.29-34.1 153.69-34.1Q158.29-34.1 161.04-31.3 163.79-28.5 163.79-23.55L163.79-23.55Q163.79-18.65 160.92-15.85 158.04-13.05 153.29-13.05L153.29-13.05 146.04-13.05 146.04 0 142.29 0ZM146.04-16.15L153.19-16.15Q156.54-16.15 158.29-18.03 160.04-19.9 160.04-23.55L160.04-23.55Q160.04-27.2 158.29-29.1 156.54-31 153.19-31L153.19-31 146.04-31 146.04-16.15ZM193.69 0L190.19 0 186.69-9.55 172.54-9.55 169.39 0 165.64 0 177.74-34.1 181.24-34.1 193.69 0ZM179.44-29.2L173.69-12.65 185.54-12.65 179.44-29.2ZM202.04 0L198.29 0 198.29-34.1 202.29-34.1 219.63-5.65 219.63-34.1 223.38-34.1 223.38 0 219.38 0 202.04-28.35 202.04 0ZM242.58 0L238.88 0 238.88-31 228.13-31 228.13-34.1 253.33-34.1 253.33-31 242.58-31 242.58 0ZM281.13 0L277.18 0 268.53-15.05 261.78-15.05 261.78 0 258.03 0 258.03-34.1 269.43-34.1Q272.53-34.1 274.88-32.9 277.23-31.7 278.48-29.53 279.73-27.35 279.73-24.55L279.73-24.55Q279.73-21.15 277.68-18.73 275.63-16.3 272.23-15.45L272.23-15.45 281.13 0ZM261.78-31L261.78-18.15 268.93-18.15Q272.23-18.15 274.01-19.9 275.78-21.65 275.78-24.55L275.78-24.55Q275.78-27.45 274.01-29.23 272.23-31 268.93-31L268.93-31 261.78-31ZM295.38-17.1L304.58-34.1 308.03-34.1 296.98-13.95 296.98 0 293.28 0 293.28-14.1 282.33-34.1 286.08-34.1 295.38-17.1Z" fill="#3c3c3c" data-fill-palette-color="secondary"></path></g></svg></g></svg></g></svg></g></svg></g><g><svg viewBox="0 0 108.30710440210358 108.30710440210358" height="108.30710440210358" width="108.30710440210358"><g><svg></svg></g><g id="icon-0"><svg viewBox="0 0 108.30710440210358 108.30710440210358" height="108.30710440210358" width="108.30710440210358"><g><path d="M0 54.154c0-29.908 24.245-54.154 54.154-54.154 29.908 0 54.154 24.245 54.153 54.154 0 29.908-24.245 54.154-54.153 54.153-29.908 0-54.154-24.245-54.154-54.153zM54.154 104.108c27.589 0 49.954-22.365 49.954-49.954 0-27.589-22.365-49.954-49.954-49.955-27.589 0-49.954 22.365-49.955 49.955 0 27.589 22.365 49.954 49.955 49.954z" data-fill-palette-color="accent" fill="#528265" stroke="transparent"></path></g><g transform="matrix(1,0,0,1,34.99114549170156,27.47258651563427)"><svg viewBox="0 0 38.32481341870046 53.36193137083504" height="53.36193137083504" width="38.32481341870046"><g><svg xmlns="http://www.w3.org/2000/svg" xmlnsXlink="http://www.w3.org/1999/xlink" version="1.1" x="0" y="0" viewBox="11.750999450683594 3.808000087738037 40.49599838256836 56.38500213623047" enable-background="new 0 0 64 64" xmlSpace="preserve" height="53.36193137083504" width="38.32481341870046" class="icon-s-0" data-fill-palette-color="accent" id="s-0"><path d="M48.239 29.441c-0.374 0-0.748-0.14-1.038-0.418l-4.395-4.214-4.389 4.214c-0.581 0.559-1.498 0.557-2.078-0.001l-4.385-4.212-0.825 0.792c-0.017 0.017-0.033 0.032-0.051 0.049l-3.512 3.372c-0.581 0.558-1.498 0.558-2.078 0l-4.386-4.213-4.386 4.212c-0.58 0.558-1.498 0.559-2.078 0.001l-2.887-2.772v33.715c0.018 0.06 0.211 0.227 0.537 0.227h39.345c0.326 0 0.52-0.168 0.538-0.231l-0.001-33.714-2.895 2.776C48.987 29.302 48.613 29.441 48.239 29.441z" fill="#528265" data-fill-palette-color="accent"></path><path d="M51.243 7.107c-0.519 0.15-2.114 0.796-3.401 3.172l0.833 0.316c2.913-1.837 3.54-3.156 3.572-3.539C52.118 7.01 51.78 6.952 51.243 7.107z" fill="#528265" data-fill-palette-color="accent"></path><path d="M22.143 21.648l4.386 4.213 2.011-1.931c-0.033-1.923-0.26-3.918-0.697-5.946-1.854-8.599-6.417-13.879-9.362-13.253-1.526 0.329-2.788 2.302-3.396 5.316 1.101-0.572 2.37-1.02 3.673-1.301 0.809-0.175 1.608 0.34 1.783 1.149 0.175 0.811-0.341 1.608-1.15 1.783-3.013 0.649-4.521 1.986-4.689 2.48-0.001 0.105-0.005 0.206-0.004 0.312 0.003 0.053 0.002 0.104-0.001 0.156 0.016 1.034 0.1 2.132 0.246 3.27 0.298-0.159 0.563-0.285 0.749-0.373 1.761-0.828 4.153-1.591 6.737-2.147 0.81-0.173 1.608 0.34 1.782 1.15 0.175 0.81-0.34 1.607-1.15 1.782-4.262 0.919-6.825 2.161-7.545 2.779 0.306 1.334 0.686 2.617 1.136 3.839l3.414-3.279C20.645 21.091 21.563 21.091 22.143 21.648z" fill="#528265" data-fill-palette-color="accent"></path><path d="M37.379 25.861l4.389-4.213c0.58-0.558 1.497-0.558 2.077-0.001l3.389 3.25 2.59-6.813c0.703-1.852-0.231-3.932-2.083-4.635l-2.454-0.933c-0.002-0.001-0.004-0.001-0.006-0.002s-0.004-0.002-0.006-0.003l-2.453-0.933c-1.852-0.703-3.933 0.231-4.636 2.083l-3.61 9.504L37.379 25.861z" fill="#528265" data-fill-palette-color="accent"></path><path d="M43.698 3.808c-0.23 0.307-0.618 1.73 0.332 5.023l0.815 0.31c0.611-2.626-0.144-4.172-0.432-4.628C44.115 4.038 43.825 3.857 43.698 3.808z" fill="#528265" data-fill-palette-color="accent"></path></svg></g></svg></g></svg></g></svg></g></svg></g></svg></g><defs></defs></svg><rect width="395.52" height="81.46924016167213" fill="none" stroke="none" visibility="hidden"></rect></g></svg></g></svg>